<svg xmlns="http://www.w3.org/2000/svg" xmlns:xlink="http://www.w3.org/1999/xlink" width="500" zoomAndPan="magnify" viewBox="0 0 375 374.999991" height="500" preserveAspectRatio="xMidYMid meet" version="1.0"><defs><clipPath id="318e49cd28"><path d="M 55.59375 55.59375 L 319.59375 55.59375 L 319.59375 319.59375 L 55.59375 319.59375 Z M 55.59375 55.59375 " clip-rule="nonzero"/></clipPath><clipPath id="1274f0cb7e"><path d="M 93 106 L 280 106 L 280 294 L 93 294 Z M 93 106 " clip-rule="nonzero"/></clipPath><clipPath id="38a1382e17"><path d="M -0.109375 200.230469 L 186.566406 13.554688 L 373.242188 200.230469 L 186.566406 386.90625 Z M -0.109375 200.230469 " clip-rule="nonzero"/></clipPath><clipPath id="46bb55de47"><path d="M -0.109375 200.230469 L 186.566406 13.554688 L 373.242188 200.230469 L 186.566406 386.90625 Z M -0.109375 200.230469 " clip-rule="nonzero"/></clipPath></defs><g clip-path="url(#318e49cd28)"><path fill="#000000" d="M 319.574219 187.582031 C 220.578125 205.808594 205.808594 220.578125 187.582031 319.570312 C 169.359375 220.578125 154.585938 205.808594 55.59375 187.582031 C 154.585938 169.359375 169.359375 154.585938 187.582031 55.59375 C 205.808594 154.585938 220.578125 169.359375 319.574219 187.582031 Z M 319.574219 187.582031 " fill-opacity="1" fill-rule="nonzero"/></g><g clip-path="url(#1274f0cb7e)"><g clip-path="url(#38a1382e17)"><g clip-path="url(#46bb55de47)"><path fill="#ff5757" d="M 279.683594 106.964844 C 222.613281 189.789062 222.613281 210.667969 279.683594 293.492188 C 196.859375 236.421875 175.980469 236.421875 93.15625 293.492188 C 150.226562 210.667969 150.226562 189.789062 93.15625 106.964844 C 175.980469 164.035156 196.859375 164.035156 279.683594 106.964844 Z M 279.683594 106.964844 " fill-opacity="1" fill-rule="nonzero"/></g></g></g></svg>