<svg width="1200" height="630" viewBox="0 0 1200 630" xmlns="http://www.w3.org/2000/svg">
  <defs>
    <linearGradient id="bgGradient" x1="0%" y1="0%" x2="100%" y2="100%">
      <stop offset="0%" style="stop-color:#1a1a1a;stop-opacity:1" />
      <stop offset="100%" style="stop-color:#2d2d2d;stop-opacity:1" />
    </linearGradient>
    <radialGradient id="orb1" cx="30%" cy="20%" r="50%">
      <stop offset="0%" style="stop-color:#E67E3C;stop-opacity:0.1" />
      <stop offset="100%" style="stop-color:#E67E3C;stop-opacity:0" />
    </radialGradient>
    <radialGradient id="orb2" cx="70%" cy="80%" r="50%">
      <stop offset="0%" style="stop-color:#E67E3C;stop-opacity:0.05" />
      <stop offset="100%" style="stop-color:#E67E3C;stop-opacity:0" />
    </radialGradient>
    <filter id="logoShadow" x="-50%" y="-50%" width="200%" height="200%">
      <feDropShadow dx="0" dy="10" stdDeviation="15" flood-color="#E67E3C" flood-opacity="0.3"/>
    </filter>
    <!-- Logo clipPaths -->
    <clipPath id="logoClip1">
      <path d="M 55.59375 55.59375 L 319.59375 55.59375 L 319.59375 319.59375 L 55.59375 319.59375 Z M 55.59375 55.59375" clip-rule="nonzero"/>
    </clipPath>
    <clipPath id="logoClip2">
      <path d="M 93 106 L 280 106 L 280 294 L 93 294 Z M 93 106" clip-rule="nonzero"/>
    </clipPath>
    <clipPath id="logoClip3">
      <path d="M -0.109375 200.230469 L 186.566406 13.554688 L 373.242188 200.230469 L 186.566406 386.90625 Z M -0.109375 200.230469" clip-rule="nonzero"/>
    </clipPath>
  </defs>
  
  <!-- Background -->
  <rect width="1200" height="630" fill="url(#bgGradient)" rx="12"/>
  
  <!-- Background effects -->
  <rect width="1200" height="630" fill="url(#orb1)"/>
  <rect width="1200" height="630" fill="url(#orb2)"/>
  
  <!-- Decorative orbs -->
  <circle cx="1100" cy="100" r="100" fill="url(#orb1)" opacity="0.3"/>
  <circle cx="100" cy="530" r="75" fill="url(#orb2)" opacity="0.3"/>
  
  <!-- Logo -->
  <g transform="translate(540, 180) scale(0.32, 0.32)" filter="url(#logoShadow)">
    <g clip-path="url(#logoClip1)">
      <path fill="#ffffff" d="M 319.574219 187.582031 C 220.578125 205.808594 205.808594 220.578125 187.582031 319.570312 C 169.359375 220.578125 154.585938 205.808594 55.59375 187.582031 C 154.585938 169.359375 169.359375 154.585938 187.582031 55.59375 C 205.808594 154.585938 220.578125 169.359375 319.574219 187.582031 Z M 319.574219 187.582031" fill-opacity="1" fill-rule="nonzero"/>
    </g>
    <g clip-path="url(#logoClip2)">
      <g clip-path="url(#logoClip3)">
        <path fill="#E67E3C" d="M 279.683594 106.964844 C 222.613281 189.789062 222.613281 210.667969 279.683594 293.492188 C 196.859375 236.421875 175.980469 236.421875 93.15625 293.492188 C 150.226562 210.667969 150.226562 189.789062 93.15625 106.964844 C 175.980469 164.035156 196.859375 164.035156 279.683594 106.964844 Z M 279.683594 106.964844" fill-opacity="1" fill-rule="nonzero"/>
      </g>
    </g>
  </g>
  
  <!-- Title -->
  <text x="600" y="320" font-family="Inter, -apple-system, BlinkMacSystemFont, sans-serif" font-size="48" font-weight="800" fill="#ffffff" text-anchor="middle" letter-spacing="-0.02em">ExplodingCB</text>
  
  <!-- Subtitle -->
  <text x="600" y="360" font-family="Inter, -apple-system, BlinkMacSystemFont, sans-serif" font-size="24" font-weight="500" fill="#E67E3C" text-anchor="middle">Chase Culbertson</text>
  
  <!-- Description -->
  <text x="600" y="400" font-family="Inter, -apple-system, BlinkMacSystemFont, sans-serif" font-size="18" font-weight="400" fill="#b0b0b0" text-anchor="middle">Engineer, Designer, and Innovator building innovative solutions</text>
  <text x="600" y="425" font-family="Inter, -apple-system, BlinkMacSystemFont, sans-serif" font-size="18" font-weight="400" fill="#b0b0b0" text-anchor="middle">to tomorrow's challenges</text>
</svg>
